<svg width="625" height="265" viewBox="0 0 625 265" fill="none" xmlns="http://www.w3.org/2000/svg">
<mask id="mask0_163_60" style="mask-type:luminance" maskUnits="userSpaceOnUse" x="0" y="0" width="348" height="265">
<path d="M0 0H347.802V264.771H0V0Z" fill="white"/>
</mask>
<g mask="url(#mask0_163_60)">
<path d="M748.63 250.79C752.349 250.79 755.372 254.143 755.372 258.268C755.372 262.405 752.349 265.757 748.63 265.757H55.9411C49.274 265.757 43.2072 262.726 38.8233 257.864C34.4393 253.001 31.706 246.273 31.706 238.878V144.368H19.6903C14.9955 144.368 11.126 143.001 8.11404 140.731C4.76979 138.234 2.56172 134.692 1.44697 130.662L1.43625 130.673C0.407255 126.941 0.375098 122.815 1.30763 118.833C2.40094 114.066 4.88769 109.418 8.64997 105.816L111.925 7.08528C116.866 2.35384 123.276 0 129.622 0C135.957 0 142.366 2.35384 147.308 7.08528L216.712 73.6583C219.52 76.3569 219.831 81.0646 217.398 84.1793C214.975 87.2939 210.72 87.6387 207.912 84.9401L138.508 18.367C136.139 16.0964 132.912 14.9671 129.622 14.9671C126.331 14.9671 123.094 16.0964 120.725 18.367L17.4501 117.109C15.8208 118.655 14.7704 120.58 14.3202 122.506C14.0093 123.862 13.9986 125.169 14.2988 126.287V126.311C14.5239 127.119 14.974 127.832 15.6493 128.343C16.5283 128.997 17.8574 129.401 19.6903 129.401H38.4588C42.1782 129.401 45.2009 132.754 45.2009 136.879V238.878C45.2009 242.148 46.4121 245.132 48.3629 247.283C50.3138 249.447 52.9934 250.79 55.9411 250.79H748.63Z" fill="#EC5A14"/>
</g>
<path d="M104.296 213.554H88.8179V126.629H104.296V213.554Z" fill="#2B3541"/>
<path d="M117.891 213.554V147.98H132.126V156.777L133.283 157.014C135.191 153.496 137.442 150.916 140.015 149.263C142.609 147.587 145.942 146.743 150.004 146.743C154.463 146.743 158.044 147.73 160.766 149.691C163.478 151.665 165.461 154.518 166.726 158.251H167.84C169.663 154.352 172.01 151.475 174.872 149.596C177.755 147.694 181.346 146.743 185.634 146.743C197.896 146.743 204.027 154.304 204.027 169.426V213.554H189.149V171.518C189.149 167.69 188.463 164.908 187.091 163.196C185.741 161.484 183.576 160.628 180.574 160.628C172.428 160.628 168.355 166.691 168.355 178.793V213.554H153.52V171.518C153.52 167.69 152.834 164.908 151.462 163.196C150.09 161.484 147.904 160.628 144.902 160.628C141.065 160.628 138.085 162.055 135.941 164.908C133.798 167.737 132.726 172.231 132.726 178.413V213.554H117.891Z" fill="#2B3541"/>
<path d="M214.979 213.554V147.98H229.214V156.777L230.372 157.014C232.28 153.496 234.53 150.916 237.103 149.263C239.697 147.587 243.03 146.743 247.093 146.743C251.552 146.743 255.132 147.73 257.854 149.691C260.566 151.665 262.549 154.518 263.814 158.251H264.929C266.751 154.352 269.098 151.475 271.96 149.596C274.844 147.694 278.434 146.743 282.722 146.743C294.984 146.743 301.115 154.304 301.115 169.426V213.554H286.238V171.518C286.238 167.69 285.552 164.908 284.18 163.196C282.829 161.484 280.664 160.628 277.663 160.628C269.516 160.628 265.443 166.691 265.443 178.793V213.554H250.609V171.518C250.609 167.69 249.923 164.908 248.551 163.196C247.179 161.484 244.992 160.628 241.991 160.628C238.153 160.628 235.174 162.055 233.03 164.908C230.886 167.737 229.814 172.231 229.814 178.413V213.554H214.979Z" fill="#2B3541"/>
<path d="M337.878 214.79C332.101 214.79 327.031 213.483 322.658 210.844C318.285 208.216 314.876 204.365 312.454 199.288C310.053 194.188 308.852 188.018 308.852 180.791C308.852 173.598 310.053 167.452 312.454 162.34C314.876 157.205 318.285 153.329 322.658 150.69C327.031 148.063 332.101 146.743 337.878 146.743C343.677 146.743 348.769 148.063 353.142 150.69C357.515 153.329 360.913 157.205 363.346 162.34C365.769 167.452 366.991 173.598 366.991 180.791C366.991 188.018 365.769 194.188 363.346 199.288C360.913 204.365 357.515 208.216 353.142 210.844C348.769 213.483 343.677 214.79 337.878 214.79ZM337.878 200.81C347.075 200.81 351.684 194.141 351.684 180.791C351.684 173.848 350.494 168.784 348.126 165.574C345.778 162.34 342.359 160.724 337.878 160.724C328.703 160.724 324.116 167.416 324.116 180.791C324.116 194.141 328.703 200.81 337.878 200.81Z" fill="#2B3541"/>
<path d="M377.282 213.554V126.629H410.724C415.526 126.629 419.599 127.485 422.944 129.196C426.288 130.885 428.817 133.274 430.532 136.377C432.247 139.491 433.105 143.165 433.105 147.409C433.105 151.249 432.258 154.637 430.575 157.585C428.914 160.51 426.513 162.852 423.372 164.623V165.859C428.282 167.286 432.087 169.889 434.777 173.658C437.457 177.438 438.807 182.051 438.807 187.495C438.807 195.841 436.535 202.272 431.99 206.802C427.467 211.307 420.768 213.554 411.882 213.554H377.282ZM407.509 161.294C414.712 161.294 418.313 157.704 418.313 150.5C418.313 146.791 417.413 144.057 415.612 142.273C413.833 140.466 411.132 139.563 407.509 139.563H392.76V161.294H407.509ZM410.338 199.954C418.881 199.954 423.158 195.651 423.158 187.02C423.158 178.401 418.881 174.086 410.338 174.086H392.76V199.954H410.338Z" fill="#2B3541"/>
<path d="M472.894 214.79C467.116 214.79 462.046 213.483 457.673 210.844C453.3 208.216 449.891 204.365 447.469 199.288C445.068 194.188 443.867 188.018 443.867 180.791C443.867 173.598 445.068 167.452 447.469 162.34C449.891 157.205 453.3 153.329 457.673 150.69C462.046 148.063 467.116 146.743 472.894 146.743C478.692 146.743 483.784 148.063 488.157 150.69C492.53 153.329 495.928 157.205 498.361 162.34C500.784 167.452 502.006 173.598 502.006 180.791C502.006 188.018 500.784 194.188 498.361 199.288C495.928 204.365 492.53 208.216 488.157 210.844C483.784 213.483 478.692 214.79 472.894 214.79ZM472.894 200.81C482.09 200.81 486.699 194.141 486.699 180.791C486.699 173.848 485.51 168.784 483.141 165.574C480.793 162.34 477.374 160.724 472.894 160.724C463.718 160.724 459.131 167.416 459.131 180.791C459.131 194.141 463.718 200.81 472.894 200.81Z" fill="#2B3541"/>
<path d="M536.435 214.79C530.658 214.79 525.588 213.483 521.214 210.844C516.841 208.216 513.433 204.365 511.01 199.288C508.609 194.188 507.409 188.018 507.409 180.791C507.409 173.598 508.609 167.452 511.01 162.34C513.433 157.205 516.841 153.329 521.214 150.69C525.588 148.063 530.658 146.743 536.435 146.743C542.234 146.743 547.325 148.063 551.699 150.69C556.072 153.329 559.47 157.205 561.903 162.34C564.325 167.452 565.547 173.598 565.547 180.791C565.547 188.018 564.325 194.188 561.903 199.288C559.47 204.365 556.072 208.216 551.699 210.844C547.325 213.483 542.234 214.79 536.435 214.79ZM536.435 200.81C545.632 200.81 550.241 194.141 550.241 180.791C550.241 173.848 549.051 168.784 546.682 165.574C544.335 162.34 540.916 160.724 536.435 160.724C527.26 160.724 522.672 167.416 522.672 180.791C522.672 194.141 527.26 200.81 536.435 200.81Z" fill="#2B3541"/>
<path d="M574.166 213.554V121.636H589.001V172.659H590.459L607.566 147.98H622.615V149.359L602.506 178.128L624.844 212.08V213.554H609.195L590.459 185.926H589.001V213.554H574.166Z" fill="#2B3541"/>
<path d="M378.85 242.955H383.052L375.678 264.497H372.462L365.087 242.955H369.289L374.048 257.078L378.85 242.955Z" fill="#2B3541"/>
<path d="M398.748 264.782C397.462 264.782 396.282 264.604 395.232 264.259C394.171 263.914 393.27 263.308 392.531 262.452C391.781 261.572 391.202 260.431 390.773 259.028C390.344 257.602 390.13 255.842 390.13 253.75C390.13 251.634 390.344 249.874 390.773 248.472C391.202 247.045 391.781 245.904 392.531 245.048C393.27 244.168 394.171 243.55 395.232 243.193C396.282 242.849 397.462 242.67 398.748 242.67C400.034 242.67 401.202 242.849 402.264 243.193C403.346 243.55 404.257 244.168 405.008 245.048C405.747 245.904 406.315 247.045 406.723 248.472C407.151 249.874 407.366 251.634 407.366 253.75C407.366 255.842 407.151 257.602 406.723 259.028C406.315 260.431 405.747 261.572 405.008 262.452C404.257 263.308 403.346 263.914 402.264 264.259C401.202 264.604 400.034 264.782 398.748 264.782ZM398.748 261.12C399.455 261.12 400.098 261.013 400.677 260.788C401.245 260.574 401.749 260.193 402.178 259.646C402.607 259.076 402.917 258.315 403.121 257.364C403.346 256.389 403.464 255.176 403.464 253.75C403.464 252.3 403.346 251.087 403.121 250.136C402.917 249.161 402.607 248.4 402.178 247.853C401.749 247.283 401.245 246.89 400.677 246.665C400.098 246.451 399.455 246.332 398.748 246.332C398.03 246.332 397.386 246.451 396.818 246.665C396.24 246.89 395.747 247.283 395.318 247.853C394.91 248.4 394.6 249.161 394.375 250.136C394.171 251.087 394.074 252.3 394.074 253.75C394.074 255.176 394.171 256.389 394.375 257.364C394.6 258.315 394.91 259.076 395.318 259.646C395.747 260.193 396.24 260.574 396.818 260.788C397.386 261.013 398.03 261.12 398.748 261.12Z" fill="#2B3541"/>
<path d="M424.138 246.617V264.497H420.193V246.617H415.005V242.955H429.283V246.617H424.138Z" fill="#2B3541"/>
<path d="M450.633 249.09C450.633 250.837 450.29 252.228 449.604 253.274C448.939 254.297 447.953 254.986 446.645 255.367L451.447 264.497H446.945L442.358 255.747H441.286V264.497H437.384V242.955H443.987C446.184 242.955 447.846 243.502 448.961 244.572C450.075 245.654 450.633 247.164 450.633 249.09ZM441.286 246.617V252.085H443.987C444.93 252.085 445.616 251.883 446.045 251.467C446.495 251.063 446.731 250.302 446.731 249.185C446.731 248.424 446.495 247.806 446.045 247.33C445.616 246.855 444.93 246.617 443.987 246.617H441.286Z" fill="#2B3541"/>
<path d="M462.883 255.557V260.835H471.886V264.497H458.981V242.955H471.629V246.617H462.883V251.895H471.2V255.557H462.883Z" fill="#2B3541"/>
<path d="M497.983 255.557V260.835H506.987V264.497H494.082V242.955H506.73V246.617H497.983V251.895H506.301V255.557H497.983Z" fill="#2B3541"/>
<path d="M529.044 258.22C529.044 259.456 528.851 260.502 528.486 261.358C528.111 262.214 527.586 262.904 526.9 263.403C526.235 263.914 525.464 264.283 524.585 264.497C523.695 264.687 522.752 264.782 521.755 264.782C520.383 264.782 519.075 264.592 517.853 264.211C516.621 263.807 515.538 263.296 514.595 262.69L516.138 259.218C516.653 259.599 517.124 259.92 517.553 260.169C517.982 260.431 518.411 260.633 518.839 260.788C519.29 260.918 519.75 261.013 520.211 261.073C520.662 261.109 521.176 261.12 521.755 261.12C522.72 261.12 523.523 260.93 524.156 260.55C524.81 260.146 525.142 259.409 525.142 258.362C525.142 257.768 524.992 257.304 524.713 256.983C524.424 256.639 524.038 256.365 523.556 256.175C523.095 255.961 522.569 255.771 521.969 255.604C521.369 255.45 520.747 255.295 520.126 255.129C519.493 254.939 518.882 254.701 518.282 254.416C517.682 254.13 517.135 253.738 516.653 253.227C516.192 252.727 515.817 252.086 515.538 251.325C515.249 250.54 515.109 249.565 515.109 248.424C515.109 247.449 515.281 246.593 515.624 245.856C515.967 245.131 516.438 244.525 517.039 244.049C517.66 243.574 518.389 243.229 519.225 243.003C520.051 242.789 520.94 242.67 521.883 242.67C523.255 242.67 524.499 242.837 525.614 243.146C526.728 243.467 527.725 243.859 528.615 244.335L527.329 247.806C526.643 247.402 525.839 247.045 524.928 246.76C524.038 246.474 523.02 246.332 521.883 246.332C521.047 246.332 520.361 246.51 519.825 246.855C519.279 247.211 519.011 247.735 519.011 248.424C519.011 249.28 519.247 249.934 519.74 250.374C520.254 250.79 520.876 251.111 521.626 251.325C522.366 251.551 523.17 251.753 524.027 251.943C524.906 252.133 525.71 252.454 526.428 252.894C527.168 253.346 527.779 253.976 528.272 254.796C528.786 255.593 529.044 256.734 529.044 258.22Z" fill="#2B3541"/>
<path d="M541.205 256.508V264.497H537.304V242.955H543.606C545.889 242.955 547.615 243.502 548.794 244.572C549.963 245.618 550.552 247.259 550.552 249.47C550.552 251.978 549.963 253.785 548.794 254.891C547.615 255.973 545.9 256.508 543.649 256.508H541.205ZM541.205 246.617V252.846H543.649C544.646 252.846 545.386 252.632 545.879 252.181C546.393 251.705 546.65 250.802 546.65 249.47C546.65 248.876 546.575 248.4 546.436 248.044C546.318 247.699 546.136 247.413 545.879 247.188C545.621 246.974 545.3 246.831 544.935 246.76C544.56 246.665 544.132 246.617 543.649 246.617H541.205Z" fill="#2B3541"/>
<path d="M570.419 259.836H563.473L561.973 264.497H557.771L564.888 242.955H569.047L576.121 264.497H571.92L570.419 259.836ZM564.717 256.175H569.133L566.946 249.232L564.717 256.175Z" fill="#2B3541"/>
<path d="M600.036 258.03C599.747 259.266 599.329 260.312 598.793 261.168C598.246 262.024 597.614 262.737 596.907 263.308C596.188 263.855 595.406 264.235 594.548 264.449C593.691 264.663 592.791 264.782 591.847 264.782C590.668 264.782 589.554 264.604 588.503 264.259C587.474 263.914 586.552 263.308 585.759 262.452C584.987 261.596 584.366 260.478 583.915 259.076C583.455 257.649 583.229 255.878 583.229 253.75C583.229 251.658 583.455 249.898 583.915 248.472C584.366 247.045 584.987 245.904 585.759 245.048C586.552 244.192 587.474 243.597 588.503 243.241C589.554 242.86 590.668 242.67 591.847 242.67C592.758 242.67 593.627 242.789 594.463 243.003C595.288 243.229 596.049 243.597 596.735 244.097C597.421 244.572 598.032 245.214 598.579 245.999C599.115 246.76 599.565 247.711 599.908 248.852L596.221 250.136C596.049 249.411 595.803 248.804 595.492 248.329C595.202 247.83 594.859 247.425 594.463 247.14C594.088 246.831 593.67 246.617 593.219 246.522C592.758 246.403 592.298 246.332 591.847 246.332C591.183 246.332 590.572 246.451 590.004 246.665C589.457 246.89 588.975 247.283 588.546 247.853C588.117 248.4 587.774 249.161 587.517 250.136C587.281 251.087 587.174 252.3 587.174 253.75C587.174 255.212 587.281 256.413 587.517 257.364C587.774 258.315 588.117 259.076 588.546 259.646C588.975 260.193 589.457 260.574 590.004 260.788C590.572 261.013 591.183 261.12 591.847 261.12C592.33 261.12 592.801 261.061 593.262 260.93C593.712 260.776 594.13 260.538 594.506 260.217C594.902 259.872 595.245 259.432 595.535 258.885C595.845 258.351 596.092 257.685 596.263 256.888L600.036 258.03Z" fill="#2B3541"/>
<path d="M611.928 255.557V260.835H620.932V264.497H608.027V242.955H620.675V246.617H611.928V251.895H620.246V255.557H611.928Z" fill="#2B3541"/>
</svg>
