<svg width="892" height="383" viewBox="0 0 892 383" fill="none" xmlns="http://www.w3.org/2000/svg">
<mask id="mask0_150_58" style="mask-type:luminance" maskUnits="userSpaceOnUse" x="0" y="0" width="497" height="383">
<path d="M0 0H496.184V382.568H0V0Z" fill="white"/>
</mask>
<g mask="url(#mask0_150_58)">
<path d="M1068.02 362.368C1073.32 362.368 1077.63 367.212 1077.63 373.172C1077.63 379.15 1073.32 383.994 1068.02 383.994H79.8072C70.2957 383.994 61.6407 379.614 55.3864 372.588C49.1321 365.563 45.2327 355.84 45.2327 345.156V208.599H28.0907C21.393 208.599 15.8727 206.623 11.5757 203.342C6.80474 199.735 3.65466 194.616 2.06432 188.793L2.04903 188.811C0.581032 183.417 0.535156 177.456 1.86553 171.702C3.42528 164.814 6.97295 158.098 12.3403 152.893L159.676 10.2375C166.725 3.40106 175.869 0 184.922 0C193.959 0 203.104 3.40106 210.153 10.2375L309.167 106.429C313.173 110.328 313.617 117.131 310.146 121.631C306.69 126.131 300.619 126.629 296.612 122.73L197.599 26.5386C194.219 23.2578 189.617 21.6259 184.922 21.6259C180.228 21.6259 175.609 23.2578 172.23 26.5386L24.8948 169.211C22.5704 171.444 21.0719 174.227 20.4296 177.01C19.9862 178.968 19.9709 180.858 20.399 182.472V182.507C20.7202 183.675 21.3624 184.705 22.3258 185.444C23.5797 186.389 25.4759 186.973 28.0907 186.973H54.8664C60.1727 186.973 64.4849 191.816 64.4849 197.777V345.156C64.4849 349.88 66.2129 354.191 68.9959 357.301C71.779 360.427 75.6019 362.368 79.8072 362.368H1068.02Z" fill="#EC5A14"/>
</g>
<path d="M148.791 308.566H126.71V182.967H148.791V308.566Z" fill="white"/>
<path d="M168.187 308.565V213.816H188.494V226.527L190.146 226.87C192.868 221.786 196.079 218.058 199.749 215.671C203.45 213.249 208.205 212.029 214.001 212.029C220.362 212.029 225.47 213.455 229.354 216.289C233.223 219.141 236.052 223.263 237.856 228.657H239.446C242.046 223.023 245.395 218.866 249.478 216.152C253.591 213.403 258.714 212.029 264.83 212.029C282.324 212.029 291.071 222.954 291.071 244.803V308.565H269.846V247.826C269.846 242.295 268.867 238.276 266.91 235.802C264.983 233.329 261.894 232.092 257.613 232.092C245.991 232.092 240.18 240.852 240.18 258.339V308.565H219.017V247.826C219.017 242.295 218.038 238.276 216.081 235.802C214.123 233.329 211.004 232.092 206.722 232.092C201.248 232.092 196.997 234.153 193.938 238.276C190.88 242.364 189.351 248.857 189.351 257.789V308.565H168.187Z" fill="white"/>
<path d="M306.696 308.565V213.816H327.003V226.527L328.655 226.87C331.377 221.786 334.588 218.058 338.258 215.671C341.959 213.249 346.714 212.029 352.51 212.029C358.871 212.029 363.979 213.455 367.863 216.289C371.731 219.141 374.56 223.263 376.365 228.657H377.955C380.555 223.023 383.904 218.866 387.986 216.152C392.1 213.403 397.223 212.029 403.339 212.029C420.833 212.029 429.58 222.954 429.58 244.803V308.565H408.355V247.826C408.355 242.295 407.376 238.276 405.419 235.802C403.492 233.329 400.403 232.092 396.122 232.092C384.5 232.092 378.689 240.852 378.689 258.339V308.565H357.525V247.826C357.525 242.295 356.547 238.276 354.589 235.802C352.632 233.329 349.513 232.092 345.231 232.092C339.757 232.092 335.505 234.153 332.447 238.276C329.389 242.364 327.86 248.857 327.86 257.789V308.565H306.696Z" fill="white"/>
<path d="M482.027 310.351C473.785 310.351 466.552 308.461 460.313 304.648C454.074 300.852 449.211 295.287 445.755 287.952C442.33 280.583 440.617 271.668 440.617 261.224C440.617 250.832 442.33 241.952 445.755 234.566C449.211 227.145 454.074 221.545 460.313 217.732C466.552 213.936 473.785 212.029 482.027 212.029C490.3 212.029 497.563 213.936 503.802 217.732C510.041 221.545 514.889 227.145 518.36 234.566C521.816 241.952 523.559 250.832 523.559 261.224C523.559 271.668 521.816 280.583 518.36 287.952C514.889 295.287 510.041 300.852 503.802 304.648C497.563 308.461 490.3 310.351 482.027 310.351ZM482.027 290.151C495.147 290.151 501.723 280.514 501.723 261.224C501.723 251.193 500.025 243.876 496.646 239.238C493.297 234.566 488.419 232.23 482.027 232.23C468.937 232.23 462.392 241.9 462.392 261.224C462.392 280.514 468.937 290.151 482.027 290.151Z" fill="white"/>
<path d="M538.24 308.566V182.967H585.95C592.801 182.967 598.612 184.204 603.383 186.677C608.154 189.116 611.763 192.569 614.209 197.052C616.656 201.552 617.879 206.86 617.879 212.992C617.879 218.541 616.671 223.436 614.271 227.696C611.9 231.921 608.475 235.305 603.995 237.865V239.651C610.998 241.712 616.427 245.474 620.265 250.919C624.088 256.382 626.015 263.046 626.015 270.913C626.015 282.972 622.773 292.265 616.289 298.809C609.836 305.319 600.279 308.566 587.602 308.566H538.24ZM581.363 233.055C591.639 233.055 596.777 227.868 596.777 217.458C596.777 212.099 595.492 208.148 592.923 205.572C590.385 202.961 586.532 201.655 581.363 201.655H560.322V233.055H581.363ZM585.4 288.915C597.587 288.915 603.689 282.697 603.689 270.226C603.689 257.773 597.587 251.538 585.4 251.538H560.322V288.915H585.4Z" fill="white"/>
<path d="M674.643 310.351C666.4 310.351 659.167 308.461 652.928 304.648C646.689 300.852 641.827 295.287 638.371 287.952C634.945 280.583 633.233 271.668 633.233 261.224C633.233 250.832 634.945 241.952 638.371 234.566C641.827 227.145 646.689 221.545 652.928 217.732C659.167 213.936 666.4 212.029 674.643 212.029C682.915 212.029 690.179 213.936 696.418 217.732C702.657 221.545 707.504 227.145 710.976 234.566C714.432 241.952 716.175 250.832 716.175 261.224C716.175 271.668 714.432 280.583 710.976 287.952C707.504 295.287 702.657 300.852 696.418 304.648C690.179 308.461 682.915 310.351 674.643 310.351ZM674.643 290.151C687.763 290.151 694.338 280.514 694.338 261.224C694.338 251.193 692.641 243.876 689.261 239.238C685.913 234.566 681.035 232.23 674.643 232.23C661.553 232.23 655.008 241.9 655.008 261.224C655.008 280.514 661.553 290.151 674.643 290.151Z" fill="white"/>
<path d="M765.293 310.351C757.051 310.351 749.818 308.461 743.579 304.648C737.34 300.852 732.477 295.287 729.021 287.952C725.596 280.583 723.883 271.668 723.883 261.224C723.883 250.832 725.596 241.952 729.021 234.566C732.477 227.145 737.34 221.545 743.579 217.732C749.818 213.936 757.051 212.029 765.293 212.029C773.566 212.029 780.829 213.936 787.068 217.732C793.307 221.545 798.155 227.145 801.626 234.566C805.082 241.952 806.825 250.832 806.825 261.224C806.825 271.668 805.082 280.583 801.626 287.952C798.155 295.287 793.307 300.852 787.068 304.648C780.829 308.461 773.566 310.351 765.293 310.351ZM765.293 290.151C778.413 290.151 784.989 280.514 784.989 261.224C784.989 251.193 783.291 243.876 779.912 239.238C776.563 234.566 771.685 232.23 765.293 232.23C752.203 232.23 745.659 241.9 745.659 261.224C745.659 280.514 752.203 290.151 765.293 290.151Z" fill="white"/>
<path d="M819.121 308.565V175.752H840.285V249.476H842.365L866.77 213.816H888.24V215.809L859.552 257.377L891.42 306.435V308.565H869.094L842.365 268.646H840.285V308.565H819.121Z" fill="white"/>
<path d="M540.478 351.047H546.473L535.952 382.172H531.365L520.844 351.047H526.838L533.628 371.453L540.478 351.047Z" fill="white"/>
<path d="M568.865 382.584C567.03 382.584 565.347 382.326 563.849 381.828C562.335 381.33 561.051 380.454 559.995 379.217C558.925 377.946 558.099 376.297 557.488 374.27C556.876 372.209 556.57 369.667 556.57 366.644C556.57 363.586 556.876 361.044 557.488 359.017C558.099 356.956 558.925 355.307 559.995 354.07C561.051 352.799 562.335 351.906 563.849 351.391C565.347 350.892 567.03 350.635 568.865 350.635C570.7 350.635 572.366 350.892 573.88 351.391C575.425 351.906 576.724 352.799 577.795 354.07C578.85 355.307 579.66 356.956 580.242 359.017C580.853 361.044 581.159 363.586 581.159 366.644C581.159 369.667 580.853 372.209 580.242 374.27C579.66 376.297 578.85 377.946 577.795 379.217C576.724 380.454 575.425 381.33 573.88 381.828C572.366 382.326 570.7 382.584 568.865 382.584ZM568.865 377.294C569.874 377.294 570.791 377.139 571.617 376.813C572.428 376.503 573.146 375.954 573.758 375.164C574.37 374.339 574.813 373.24 575.104 371.866C575.425 370.457 575.593 368.705 575.593 366.644C575.593 364.548 575.425 362.796 575.104 361.422C574.813 360.013 574.37 358.914 573.758 358.124C573.146 357.299 572.428 356.733 571.617 356.406C570.791 356.097 569.874 355.925 568.865 355.925C567.84 355.925 566.923 356.097 566.112 356.406C565.286 356.733 564.583 357.299 563.971 358.124C563.39 358.914 562.947 360.013 562.626 361.422C562.335 362.796 562.197 364.548 562.197 366.644C562.197 368.705 562.335 370.457 562.626 371.866C562.947 373.24 563.39 374.339 563.971 375.164C564.583 375.954 565.286 376.503 566.112 376.813C566.923 377.139 567.84 377.294 568.865 377.294Z" fill="white"/>
<path d="M605.086 356.337V382.172H599.459V356.337H592.058V351.047H612.426V356.337H605.086Z" fill="white"/>
<path d="M642.885 359.91C642.885 362.435 642.395 364.445 641.417 365.957C640.469 367.434 639.062 368.43 637.196 368.98L644.047 382.172H637.624L631.08 369.529H629.55V382.172H623.984V351.047H633.404C636.539 351.047 638.909 351.837 640.499 353.383C642.09 354.946 642.885 357.128 642.885 359.91ZM629.55 356.337V364.239H633.404C634.75 364.239 635.728 363.947 636.34 363.346C636.982 362.762 637.319 361.662 637.319 360.048C637.319 358.948 636.982 358.055 636.34 357.368C635.728 356.681 634.75 356.337 633.404 356.337H629.55Z" fill="white"/>
<path d="M660.361 369.255V376.881H673.206V382.172H654.795V351.047H672.839V356.337H660.361V363.964H672.228V369.255H660.361Z" fill="white"/>
<path d="M710.437 369.255V376.881H723.282V382.172H704.871V351.047H722.915V356.337H710.437V363.964H722.303V369.255H710.437Z" fill="white"/>
<path d="M754.748 373.102C754.748 374.889 754.473 376.4 753.953 377.637C753.418 378.874 752.669 379.87 751.69 380.592C750.742 381.33 749.641 381.863 748.387 382.172C747.118 382.447 745.772 382.584 744.35 382.584C742.393 382.584 740.527 382.309 738.784 381.76C737.025 381.176 735.481 380.437 734.135 379.561L736.337 374.545C737.071 375.095 737.744 375.559 738.356 375.919C738.967 376.297 739.579 376.589 740.191 376.813C740.833 377.002 741.491 377.139 742.148 377.225C742.79 377.276 743.524 377.294 744.35 377.294C745.726 377.294 746.873 377.019 747.775 376.469C748.708 375.885 749.182 374.82 749.182 373.309C749.182 372.45 748.968 371.78 748.571 371.316C748.158 370.818 747.607 370.423 746.919 370.148C746.262 369.839 745.512 369.564 744.656 369.323C743.8 369.1 742.913 368.877 742.026 368.636C741.124 368.362 740.252 368.018 739.396 367.606C738.539 367.193 737.759 366.627 737.071 365.888C736.414 365.167 735.879 364.239 735.481 363.14C735.068 362.006 734.869 360.597 734.869 358.948C734.869 357.54 735.114 356.303 735.603 355.238C736.093 354.19 736.765 353.314 737.622 352.627C738.509 351.94 739.549 351.442 740.741 351.116C741.919 350.807 743.188 350.635 744.534 350.635C746.491 350.635 748.265 350.875 749.855 351.322C751.445 351.786 752.868 352.352 754.137 353.04L752.302 358.055C751.323 357.471 750.176 356.956 748.876 356.544C747.607 356.131 746.155 355.925 744.534 355.925C743.341 355.925 742.362 356.183 741.598 356.681C740.818 357.196 740.435 357.952 740.435 358.948C740.435 360.185 740.772 361.13 741.475 361.766C742.209 362.367 743.096 362.83 744.167 363.14C745.222 363.466 746.369 363.758 747.592 364.033C748.846 364.308 749.993 364.772 751.017 365.407C752.072 366.06 752.944 366.97 753.647 368.155C754.381 369.306 754.748 370.955 754.748 373.102Z" fill="white"/>
<path d="M772.099 370.629V382.172H766.532V351.047H775.524C778.781 351.047 781.243 351.837 782.925 353.383C784.592 354.895 785.433 357.265 785.433 360.46C785.433 364.084 784.592 366.695 782.925 368.293C781.243 369.856 778.796 370.629 775.585 370.629H772.099ZM772.099 356.337V365.338H775.585C777.007 365.338 778.062 365.029 778.766 364.376C779.5 363.689 779.867 362.384 779.867 360.46C779.867 359.601 779.76 358.914 779.561 358.399C779.393 357.901 779.133 357.488 778.766 357.162C778.399 356.853 777.94 356.647 777.42 356.544C776.885 356.406 776.273 356.337 775.585 356.337H772.099Z" fill="white"/>
<path d="M813.776 375.438H803.867L801.726 382.172H795.732L805.885 351.047H811.818L821.911 382.172H815.917L813.776 375.438ZM805.641 370.148H811.941L808.821 360.116L805.641 370.148Z" fill="white"/>
<path d="M856.028 372.828C855.616 374.614 855.019 376.126 854.255 377.362C853.475 378.599 852.573 379.63 851.563 380.454C850.539 381.244 849.422 381.794 848.199 382.103C846.976 382.412 845.691 382.584 844.346 382.584C842.664 382.584 841.073 382.326 839.575 381.828C838.107 381.33 836.792 380.454 835.66 379.217C834.559 377.981 833.672 376.366 833.03 374.339C832.372 372.278 832.051 369.719 832.051 366.644C832.051 363.621 832.372 361.078 833.03 359.017C833.672 356.956 834.559 355.307 835.66 354.07C836.792 352.833 838.107 351.975 839.575 351.459C841.073 350.91 842.664 350.635 844.346 350.635C845.645 350.635 846.884 350.807 848.077 351.116C849.254 351.442 850.34 351.975 851.319 352.696C852.297 353.383 853.169 354.311 853.949 355.444C854.713 356.544 855.356 357.918 855.845 359.567L850.585 361.422C850.34 360.374 849.988 359.498 849.545 358.811C849.132 358.09 848.643 357.506 848.077 357.093C847.542 356.647 846.945 356.338 846.303 356.2C845.645 356.028 844.988 355.925 844.346 355.925C843.398 355.925 842.526 356.097 841.715 356.406C840.936 356.733 840.247 357.299 839.636 358.124C839.024 358.914 838.535 360.013 838.168 361.422C837.831 362.796 837.678 364.548 837.678 366.644C837.678 368.757 837.831 370.491 838.168 371.866C838.535 373.24 839.024 374.339 839.636 375.164C840.247 375.954 840.936 376.503 841.715 376.813C842.526 377.139 843.398 377.294 844.346 377.294C845.034 377.294 845.707 377.208 846.364 377.019C847.006 376.795 847.603 376.452 848.138 375.988C848.704 375.49 849.193 374.854 849.606 374.064C850.049 373.291 850.401 372.329 850.646 371.179L856.028 372.828Z" fill="white"/>
<path d="M872.994 369.255V376.881H885.839V382.172H867.428V351.047H885.472V356.337H872.994V363.964H884.861V369.255H872.994Z" fill="white"/>
</svg>
